<?xml version="1.0" encoding="UTF-8"?>
<svg id="Layer_2" data-name="Layer 2" xmlns="http://www.w3.org/2000/svg" viewBox="0 -26 271.3 271.3" fill="#ffffff">
  <g id="Layer_1-2" data-name="Layer 1">
    <g>
      <path d="M169.61,16.99c-15,0-29.5,0-43.99,.01-9.95,0-17.3,4.1-22.72,12.74-26.9,42.91-54.13,85.61-81.09,128.48-10.68,16.99-2.63,37.72,16.24,42.51,1.75,.44,3.62,.58,5.43,.59,24.16,.04,48.33,.06,72.49,.03,8.38-.01,11.54-5.09,7.11-11.95-10.75-16.66-21.77-33.13-32.68-49.69-.37-.56-.64-1.19-.81-1.53-2.88,.89-3.61,2.91-4.66,4.51-5.37,8.24-10.63,16.54-15.91,24.83-1.61,2.52-2.89,5.08-3.47,8.16-1.05,5.56-6.08,9.25-11.55,9.18-4.72-.07-9.3-3.53-10.46-7.9-1.42-5.38,.83-10.99,5.93-13.52,2.86-1.42,4.67-3.47,6.31-6.07,7.48-11.83,15.01-23.63,22.7-35.31,5.63-8.55,14.49-8.53,20.22,.02,13.17,19.65,26.39,39.28,39.26,59.13,10.45,16.11,1.3,36.16-17.56,36.95-26.62,1.12-53.39,1.86-79.93-.21-33.5-2.61-51.12-39.02-33.62-67.84,11.33-18.65,23.3-36.91,34.95-55.36,15.57-24.65,31.27-49.22,46.59-74.02C96.86,7.09,108.51-.14,124.7,.22c23.32,.52,46.63-.65,69.96-.04,15.23,.4,26.98,6.65,35.11,19.39,10.49,16.43,20.82,32.96,31.03,49.57,9.73,15.84,6.68,38.78-6.66,51.61-5.52,5.31-11.03,10.65-16.74,15.76-2.59,2.32-2.48,4.08-.37,6.67,9.67,11.89,19.18,23.91,28.73,35.89,6.78,8.51,6.95,17.89,2.65,27.26-4.26,9.26-12.57,12.37-22.25,12.27-5.97-.06-9.66-3.4-9.79-8.47-.13-4.99,3.52-8.49,9.46-8.73,3.4-.14,6.22-.8,7.7-4.3,1.46-3.43,.15-6.13-1.94-8.72-11-13.61-21.96-27.24-32.98-40.83-4.9-6.03-4.72-11.85,.81-17.23,7.28-7.09,14.63-14.12,21.95-21.16,8.69-8.36,10.83-21.79,4.49-32.04-10.34-16.72-20.94-33.27-31.66-49.75-4.63-7.11-11.84-10.07-20.08-10.32-7.99-.24-15.99-.06-24.49-.07Z"/>
      <path d="M177.68,119.99c-2.49,0-4.49-.04-6.49,.03-7.49,.24-10.24,5.14-6.14,11.32,10.5,15.82,21.15,31.55,31.74,47.31,1.11,1.66,2.3,3.28,3.27,5.02,1.82,3.27,4.33,4.91,8.21,5.55,8.63,1.44,13.69,8.9,12.57,17.53-.99,7.57-7.83,12.75-16.25,12.29-8.3-.45-14.44-6.94-14.27-15.52,.06-3.19-.79-5.78-2.54-8.36-12.11-17.75-24.09-35.59-36.2-53.34-8.89-13.02-6.31-28.45,6.11-35.61,3.24-1.87,6.69-2.91,10.46-2.88,6.5,.04,13-.04,19.49,.02,6.75,.06,11.44-3.3,14.46-8.98,2.61-4.92,.77-9.28-1.57-14.09-4.47-9.22-11-12.31-21.17-11.64-13.6,.91-27.31,.36-40.97,.15-5.03-.08-8.46,1.55-11.11,5.95-5.5,9.13-11.39,18.02-17.1,27.02-3.11,4.9-7.99,6.53-12.24,4.06-4.33-2.52-5.31-7.52-2.16-12.55,6.71-10.73,13.44-21.46,20.38-32.04,4.36-6.65,11.06-9.59,18.77-9.68,17.99-.2,35.99-.27,53.98,0,8.66,.13,15.72,3.89,20.38,11.53,2.17,3.56,4.43,7.05,6.61,10.6,6.03,9.88,5.92,20.03,.39,29.89-5.64,10.05-14.03,16.35-26.13,16.44-4,.03-8-.01-12.48-.02Z"/>
    </g>
  </g>
</svg>
